<?xml version="1.0" encoding="utf-8"?>
<!-- Svg Vector Icons : http://www.onlinewebfonts.com/icon -->
<!DOCTYPE svg PUBLIC "-//W3C//DTD SVG 1.1//EN" "http://www.w3.org/Graphics/SVG/1.1/DTD/svg11.dtd">
<svg version="1.1" xmlns="http://www.w3.org/2000/svg" xmlns:xlink="http://www.w3.org/1999/xlink" x="0px" y="0px" viewBox="0 0 1000 1000" enable-background="new 0 0 1000 1000" xml:space="preserve">
<metadata> Svg Vector Icons : http://www.onlinewebfonts.com/icon </metadata>
<g><path d="M908.4,678.2c-27.9-24.3-57.3-46.3-63-111.6c-26.1-300.9-52.7-421.3-249.6-488.3c-30.5-10.3-41-24.9-48.2-37.8c-1.1-2.1-2.2-4.1-3.1-6.1c-0.1,0-0.1-0.1-0.1-0.1c-5.8-9.5-14.8-17.2-26-21.3c-6.2-2.1-12.3-3.1-18.5-3c-6.1-0.1-12.4,0.9-18.5,3c-11.3,4.1-20.2,11.8-26,21.3v0.1c-1.1,2-2.1,4-3.2,6.1C445,53.5,434.4,68,404,78.4c-196.9,67-223.5,187.4-249.7,488.3c-5.7,65.3-35.1,87.3-62.9,111.6c-11,10.2-32.5,29.4-34.2,148.5h885.4C946.1,717.9,909.3,679,908.4,678.2z"/><path d="M500,990c91.7,0,166-48.8,166-108.9H334C334,941.2,408.3,990,500,990z"/></g>
</svg>